PathFileType	4	(X/Y/Z)	..\data\2014031\dynamic\2014031_C4_02.trc
DataRate	CameraRate	NumFrames	NumMarkers	Units	OrigDataRate	OrigDataStartFrame	OrigNumFrames
100.000000	100.000000	4	52	mm	100.000000	63	170
Frame#	Time	L_IAS			L_IPS			R_IPS			R_IAS			L_FTC			L_FLE			L_FME			L_FAX			L_TTC			L_FAL			L_TAM			L_FCC			L_FM1			L_FM2			L_FM5			R_FTC			R_FLE			R_FME			R_FAX			R_TTC			R_FAL			R_TAM			R_FCC			R_FM1			R_FM2			R_FM5			CV7			TV10			SXS			SJN			L_SIA			L_SRS			L_SAA			L_SAE			L_HLE			L_HME			L_UOA			L_RSP			L_UHE			L_HM2			L_HM5			R_SIA			R_SRS			R_SAA			R_SAE			R_HLE			R_HME			R_UOA			R_RSP			R_UHE			R_HM2			R_HM5			
		X1	Y1	Z1	X2	Y2	Z2	X3	Y3	Z3	X4	Y4	Z4	X5	Y5	Z5	X6	Y6	Z6	X7	Y7	Z7	X8	Y8	Z8	X9	Y9	Z9	X10	Y10	Z10	X11	Y11	Z11	X12	Y12	Z12	X13	Y13	Z13	X14	Y14	Z14	X15	Y15	Z15	X16	Y16	Z16	X17	Y17	Z17	X18	Y18	Z18	X19	Y19	Z19	X20	Y20	Z20	X21	Y21	Z21	X22	Y22	Z22	X23	Y23	Z23	X24	Y24	Z24	X25	Y25	Z25	X26	Y26	Z26	X27	Y27	Z27	X28	Y28	Z28	X29	Y29	Z29	X30	Y30	Z30	X31	Y31	Z31	X32	Y32	Z32	X33	Y33	Z33	X34	Y34	Z34	X35	Y35	Z35	X36	Y36	Z36	X37	Y37	Z37	X38	Y38	Z38	X39	Y39	Z39	X40	Y40	Z40	X41	Y41	Z41	X42	Y42	Z42	X43	Y43	Z43	X44	Y44	Z44	X45	Y45	Z45	X46	Y46	Z46	X47	Y47	Z47	X48	Y48	Z48	X49	Y49	Z49	X50	Y50	Z50	X51	Y51	Z51	X52	Y52	Z52	

64	0.63	509.3250122070314	929.8886718750002	-358.4584045410157	318.8681945800782	965.1429443359377	-282.9362487792969	324.9583740234376	954.7100830078127	-178.82080078125	518.0715942382814	930.3248291015627	-131.9035186767578	392.2614746093751	863.8994750976565	-427.4062500000001	301.7243041992188	459.4946594238282	-383.2704467773438	308.2572021484376	455.9089355468751	-253.9321594238282	265.4396667480469	406.9456787109376	-380.9057006835938	325.9069213867188	381.2964782714844	-325.3559875488282	77.91430664062501	117.4027786254883	-331.8525390625001	111.5451049804688	123.2389831542969	-244.5646514892579	19.60130119323731	91.41452789306642	-282.5697937011719	193.7175903320313	17.37038612365723	-244.7340698242188	202.7467498779297	31.21171379089356	-302.0181579589844	156.7458648681641	22.94362258911133	-353.5140380859376	450.7945861816407	841.119323730469	-57.33635330200197	601.5654296875001	469.9227294921876	-103.3866958618164	602.3540039062501	456.9225463867189	-232.527084350586	613.2300415039064	409.9453735351564	-102.6095809936524	669.6307373046876	424.4151611328126	-161.8310699462891	661.7757568359376	68.88853454589845	-137.5865631103516	690.2277832031251	96.19109344482425	-221.9255828857422	634.5525512695314	14.57356834411621	-191.9666290283203	820.7242431640627	50.55724334716798	-205.7014770507813	819.8520507812502	62.54780578613283	-148.8397979736328	782.3721923828127	30.97133827209473	-105.7067108154297	394.068572998047	1481.3095703125	-214.2570800781251	312.1052551269532	1204.665893554688	-234.1328430175782	535.1847534179689	1197.756713867188	-240.2149200439454	506.7142944335939	1392.50439453125	-228.3851013183594	310.9610900878907	1238.72216796875	-347.2590942382813	352.6508483886719	1394.085815429688	-360.5929260253907	405.218963623047	1390.065795898438	-421.6541748046876	451.7490844726564	1393.144409179688	-420.1388244628907	483.3049621582032	1067.563720703125	-517.8116455078126	448.6851806640626	1028.215454101563	-444.487030029297	457.9098510742189	1019.897155761719	-498.5162963867189	705.1432495117189	958.5493164062502	-402.6030578613282	692.7735595703126	919.3284912109377	-472.9368896484376	789.0242919921877	930.1873779296877	-396.406951904297	745.6844482421876	863.4475097656252	-458.3245239257814	302.8143310546876	1229.841552734375	-136.5083618164063	355.5828247070313	1384.78662109375	-100.8674774169922	408.9902648925782	1378.518920898438	-39.07669067382813	452.321014404297	1367.651123046875	-23.49315071105957	344.3125000000001	1045.557250976563	21.41196060180664	325.3681030273438	1037.1298828125	-60.82639694213869	305.1365661621094	1030.013549804688	-21.67968368530274	408.7915649414064	793.8474121093752	1.204126954078675	353.1055908203126	795.919616699219	58.40188598632814	414.9503479003907	698.8297729492189	3.873871326446534	331.2525024414063	713.1741943359376	58.47627258300783	
65	0.64	523.2445068359376	929.9937744140627	-356.9995117187501	332.4374389648438	965.1235351562502	-282.6138916015626	338.4193725585938	955.4907836914065	-178.0845184326172	531.6059570312501	931.7972412109377	-130.7943267822266	406.7191772460939	863.114196777344	-426.4261169433595	318.2827758789063	458.8330688476564	-383.7385559082032	326.1842346191407	453.9204711914064	-254.7999114990235	281.0533142089844	407.1794738769532	-381.4702148437501	341.6680297851563	379.2718811035157	-327.0200805664063	84.83879852294923	123.952133178711	-332.3696594238282	119.4887390136719	127.7619705200196	-245.4924621582032	26.41084671020509	101.0626602172852	-282.3156738281251	193.4007263183594	17.49911880493164	-244.0508575439454	202.5192413330079	31.08807373046876	-301.2000122070313	157.0607299804688	23.83712959289551	-352.5249328613282	464.5240173339845	842.8149414062502	-55.83137893676759	614.5202636718751	470.539520263672	-103.523910522461	615.4588623046876	458.2763977050782	-232.4935607910157	625.0870361328126	410.4783020019532	-102.8248062133789	681.5886230468751	424.0032958984376	-162.1742248535157	664.0419311523439	68.29465484619142	-138.0601806640625	693.2335815429689	94.51851654052736	-222.6942901611329	634.3121337890626	15.21293163299561	-191.9928741455078	822.6458129882815	43.10301971435548	-205.7589874267579	822.050720214844	56.19399642944337	-148.5793151855469	782.9038085937502	27.00321197509766	-104.8276596069336	406.0396423339845	1481.73779296875	-212.0238342285157	324.9613342285157	1204.773681640625	-232.7234649658204	547.9218139648439	1198.712280273438	-239.0811157226563	518.8997192382814	1393.26513671875	-226.7817840576172	323.1933593750001	1239.043701171875	-345.4525756835938	364.1473693847657	1394.682983398438	-358.3355712890626	416.5404663085939	1391.054565429688	-419.668914794922	463.1712341308595	1394.050659179688	-418.3153381347657	493.213592529297	1068.321411132813	-516.2861328125001	458.7226562500001	1029.118896484375	-442.7776794433595	467.5511474609376	1020.844970703125	-496.9086303710939	714.6801757812501	957.089294433594	-402.4622802734376	701.6511230468751	918.2197875976565	-472.8775024414064	798.347106933594	928.0170898437502	-396.8202514648439	754.1135253906251	861.8278808593752	-458.7219238281251	315.7645263671876	1229.898803710938	-134.6896514892578	368.3282165527344	1384.865844726563	-98.66314697265628	422.0063781738282	1378.561279296875	-37.08322525024415	465.4285583496095	1367.71826171875	-21.70092964172364	358.2671813964844	1045.348022460938	22.66343116760254	338.8928222656251	1037.162841796875	-59.50787734985353	318.9396362304688	1030.04736328125	-20.24431800842286	421.1134643554689	793.332214355469	1.413016557693482	366.2546997070313	795.7630004882815	59.45978927612306	425.8728942871095	698.1007080078126	3.348663091659547	343.3070678710938	713.3556518554689	59.59958648681642	
66	0.65	537.1323242187501	930.2422485351565	-355.4197082519532	345.9886779785157	965.2817993164065	-282.3757629394532	351.8059387207032	956.5169067382815	-177.3893432617188	545.0429077148439	933.499938964844	-129.6319732666016	421.3509521484376	862.3564453125002	-425.4132385253907	336.0529174804688	458.0616149902345	-384.2490234375001	345.6366577148438	451.621307373047	-255.7459259033204	297.9483947753907	407.4531555175782	-382.1217041015626	358.6605834960938	377.1882019042969	-328.8778686523438	93.02506256103517	131.0764312744141	-332.8100585937501	128.815673828125	132.6260223388672	-246.4463348388672	34.79758453369141	111.6273956298828	-281.8331298828126	193.3604125976563	18.09080123901368	-243.3574829101563	202.5162200927735	31.17926216125489	-300.3991088867188	157.658187866211	25.33585929870606	-351.4480590820313	478.0203857421876	844.7088012695315	-54.32101440429689	626.8464965820314	471.1138305664064	-103.614242553711	627.9033203125001	459.6114196777345	-232.4322662353516	636.3917236328126	411.0242614746095	-103.0179061889649	692.9340209960939	423.6072692871095	-162.5257568359375	666.0826416015626	67.92312622070314	-138.5642700195313	695.8246459960939	93.09241485595705	-223.543685913086	634.0625000000001	15.91544246673584	-192.0063934326172	824.1789550781252	36.50510025024415	-206.0375061035157	823.974304199219	50.70101165771486	-148.4996948242188	783.3780517578127	23.83768081665039	-104.0111160278321	418.0051269531251	1482.326416015625	-209.8015289306641	337.8004150390626	1205.057006835938	-231.3435516357422	560.6181640625001	1199.860107421875	-237.9867095947266	531.0796508789064	1394.202880859375	-225.1960754394532	335.4361877441407	1239.602905273438	-343.7343444824219	375.6658935546876	1395.49609375	-356.1182556152344	427.8509521484376	1392.256225585938	-417.6746520996095	474.5603637695314	1395.192016601563	-416.4990844726564	502.9176330566407	1069.266357421875	-514.6709594726564	468.5343017578126	1030.286499023438	-440.939666748047	476.9096679687501	1022.045288085938	-495.1903076171876	723.7816772460939	955.1483154296877	-402.3986206054689	709.9881591796876	916.7784423828127	-472.9589233398439	807.125915527344	925.0857543945315	-397.3529357910157	761.8018798828126	859.698669433594	-459.3523559570314	328.8334960937501	1230.137817382813	-132.8540496826172	381.0655517578126	1385.134155273438	-96.49147033691409	435.0254211425782	1378.80126953125	-35.13819885253907	478.5241699218751	1368.000732421875	-19.96086692810059	372.3881530761719	1045.316040039063	23.99103355407715	352.5557861328126	1037.345825195313	-58.1107749938965	332.8926391601563	1030.20068359375	-18.71955108642578	434.0956115722657	793.1352539062502	1.620298147201539	380.0957946777344	795.789733886719	60.53634262084962	437.5435180664064	697.7056884765626	2.769555091857911	356.1508483886719	713.7230224609376	60.72080993652345	
67	0.66	550.9068603515626	930.611511230469	-353.7593994140626	359.4672851562501	965.576599121094	-282.1803588867188	365.0722351074219	957.736267089844	-176.7225341796875	558.3392333984376	935.368347167969	-128.4323272705078	436.067840576172	861.6199951171877	-424.3666381835939	355.0370483398438	457.1829528808595	-384.7794189453126	366.5714416503907	449.0625305175782	-256.7242126464844	316.1495971679688	407.7636718750001	-382.8464050292969	376.8783264160157	375.1006164550782	-330.8551330566407	102.5687561035157	138.7448120117188	-333.1779785156251	139.566146850586	137.8228912353516	-247.4152984619141	44.85448837280274	123.0212707519532	-281.1552429199219	193.8312225341797	19.26545906066895	-242.7451934814454	202.9634399414063	31.58438873291016	-299.7167053222657	158.7518157958985	27.58827590942384	-350.3562622070313	491.2528686523439	846.741394042969	-52.82290649414064	638.4533691406251	471.6120910644532	-103.6435012817383	639.5367431640626	460.8456115722657	-232.3313140869141	647.0447998046876	411.5286254882814	-103.1699142456055	703.5687866210939	423.1950988769532	-162.8715515136719	667.9672241210939	67.75515747070314	-139.0816040039063	698.0599365234376	91.9213104248047	-224.4356689453126	633.9316406250001	16.63385200500489	-192.0113983154297	825.415710449219	30.93965721130372	-206.512435913086	825.7016601562502	46.18799209594727	-148.5906677246094	783.903747558594	21.5039348602295	-103.2942428588867	429.9766845703126	1483.045776367188	-207.6079406738282	350.5924987792969	1205.500610351563	-229.9870147705079	573.2457885742189	1201.146484375	-236.9599304199219	543.2498779296876	1395.274169921875	-223.655990600586	347.6589660644532	1240.375244140625	-342.1001281738282	387.2058105468751	1396.494506835938	-353.9619445800782	439.136199951172	1393.626708984375	-415.6929626464845	485.9012145996095	1396.526977539063	-414.7158508300782	512.4319458007814	1070.3603515625	-512.9908447265626	478.1354064941407	1031.676513671875	-439.0047912597657	486.0096740722657	1023.455505371094	-493.3845214843751	732.4506835937501	952.7442016601565	-402.4095458984376	717.8043823242189	915.014343261719	-473.1719970703126	815.3521118164065	921.4256591796877	-397.985565185547	768.774108886719	857.0899658203127	-460.1942443847657	341.9896545410157	1230.537231445313	-131.0023803710938	393.8013916015626	1385.56494140625	-94.36710357666017	448.0563354492189	1379.208862304688	-33.25608062744141	491.6275024414064	1368.459106445313	-18.29590034484864	386.6488342285157	1045.435791015625	25.40072822570801	366.3239440917969	1037.650268554688	-56.6244354248047	346.9630737304688	1030.445556640625	-17.097318649292	447.7335205078126	793.2359619140627	1.835815906524659	394.6095581054689	795.967468261719	61.61937713623048	450.0104064941407	697.6251220703126	2.159730911254883	369.8003540039063	714.2246704101564	61.8159866333008	
